<?xml version="1.0" standalone="no"?>
<!DOCTYPE svg PUBLIC "-//W3C//DTD SVG 20010904//EN"
 "http://www.w3.org/TR/2001/REC-SVG-20010904/DTD/svg10.dtd">
<svg version="1.0" xmlns="http://www.w3.org/2000/svg"
 width="136.000000pt" height="136.000000pt" viewBox="0 0 136.000000 136.000000"
 preserveAspectRatio="xMidYMid meet">

<g transform="translate(0.000000,136.000000) scale(0.100000,-0.100000)"
fill="#000000" stroke="none">
<path d="M250 1348 c-19 -5 -37 -11 -38 -13 -2 -2 2 -19 9 -38 11 -32 15 -34
36 -26 14 5 56 9 94 9 l69 0 0 40 0 40 -67 -1 c-38 0 -84 -5 -103 -11z"/>
<path d="M590 1320 l0 -40 90 0 90 0 0 40 0 40 -90 0 -90 0 0 -40z"/>
<path d="M940 1320 l0 -40 64 0 c35 0 77 -3 93 -6 24 -5 31 -2 41 21 7 14 12
30 12 34 0 14 -84 31 -149 31 l-61 0 0 -40z"/>
<path d="M11 1106 c-6 -25 -11 -72 -11 -105 l0 -61 40 0 40 0 0 64 c0 35 3 77
6 93 5 24 2 31 -21 41 -39 18 -42 16 -54 -32z"/>
<path d="M1289 1137 c-21 -10 -24 -16 -18 -32 4 -11 8 -53 8 -92 l1 -73 40 0
40 0 0 61 c0 71 -18 149 -34 148 -6 0 -23 -6 -37 -12z"/>
<path d="M273 1123 c-10 -24 45 -123 68 -123 23 0 24 21 4 60 l-16 30 111 0
110 0 2 -287 c3 -280 4 -288 23 -288 19 0 20 8 23 288 l2 287 115 0 116 0 -16
-30 c-17 -32 -13 -50 10 -50 18 0 78 98 71 116 -4 12 -60 14 -311 14 -276 0
-306 -2 -312 -17z"/>
<path d="M745 880 c-11 -5 -35 -9 -52 -9 l-33 -1 0 -350 c0 -343 0 -350 20
-350 19 0 20 7 20 105 0 58 2 105 4 105 2 0 20 -7 39 -15 53 -22 106 -18 164
10 56 28 93 70 125 142 23 52 20 133 -8 215 -19 57 -77 126 -121 144 -36 15
-127 17 -158 4z m162 -61 c46 -29 85 -113 90 -197 4 -57 1 -74 -19 -111 -36
-67 -87 -103 -150 -109 -44 -3 -59 0 -88 20 l-35 24 0 184 0 185 50 17 c57 20
104 16 152 -13z"/>
<path d="M0 680 l0 -90 40 0 40 0 0 90 0 90 -40 0 -40 0 0 -90z"/>
<path d="M1280 680 l0 -90 40 0 40 0 0 90 0 90 -40 0 -40 0 0 -90z"/>
<path d="M0 359 c0 -64 17 -149 30 -149 4 0 21 6 37 13 24 10 29 16 22 32 -4
11 -8 53 -8 93 l-1 72 -40 0 -40 0 0 -61z"/>
<path d="M1280 356 c0 -35 -3 -77 -6 -93 -5 -24 -2 -31 21 -41 14 -7 30 -12
34 -12 14 0 31 84 31 149 l0 61 -40 0 -40 0 0 -64z"/>
<path d="M1105 89 c-11 -4 -53 -8 -92 -8 l-73 -1 0 -40 0 -40 61 0 c64 0 149
17 149 30 0 4 -6 21 -12 37 -11 24 -17 29 -33 22z"/>
<path d="M222 65 c-7 -14 -12 -30 -12 -34 0 -14 84 -31 149 -31 l61 0 0 40 0
40 -64 0 c-35 0 -77 3 -93 6 -24 5 -31 2 -41 -21z"/>
<path d="M590 40 l0 -40 90 0 90 0 0 40 0 40 -90 0 -90 0 0 -40z"/>
</g>
</svg>
